<svg xmlns="http://www.w3.org/2000/svg" height="474.92" width="3417.32" xml:space="preserve"><path style="fill:#fff;fill-opacity:1;fill-rule:nonzero;stroke:none" d="M1863.2 2250.3c0 314.6-212.99 585.63-542.06 585.63H783.977V1664.84h537.163c329.07 0 542.06 270.86 542.06 585.46zM0 3474.71h1417.88c750.16 0 1234.17-566.28 1234.17-1224.41 0-658.13-484.01-1224.23-1234.17-1224.23H783.977V87.14H0v3387.57m4921.7-967.85-416.21-1393.82h822.66zM5652.51 87.14l-130.54 411.34H4316.9L4186.18 87.14h-837.3l1209.94 3387.57h721.05L6504.29 87.14h-851.78m2168.04 2710.09H7056.1v677.48h2317.93v-677.48h-769.51V87.14h-783.97v2710.09m4636.25-546.93c0 314.6-213 585.63-542.1 585.63h-537.2V1664.84h537.2c329.1 0 542.1 270.86 542.1 585.46zm-1863.2 1224.41h1422.9c750 0 1234-566.28 1234-1224.41 0-474.25-251.7-895.17-672.8-1093.69l677.7-1069.47h-909.8l-600.3 938.93h-367.8V87.14h-783.9v3387.57" transform="matrix(.13333 0 0 -.13333 0 474.92)"/><path style="fill:#fff;fill-opacity:1;fill-rule:nonzero;stroke:none" d="M15044.4 2786.07V2032.8H16300v-601.88h-1255.6V701.386H16300V85.32h-2023.2v3316.8H16300v-616.05h-1255.6" transform="matrix(.13618 0 0 -.13618 0 474.92)"/><path style="fill:#fff;fill-opacity:1;fill-rule:nonzero;stroke:none" d="M15694.9 1349.78c0 421.79-286.2 814.25-751.9 814.25-469.6 0-752-392.46-752-814.25 0-421.791 282.4-814.26 752-814.26 465.7 0 751.9 392.469 751.9 814.26zm-2112.8 0c0 704.22 506.2 1349.78 1360.9 1349.78 850.8 0 1357-645.56 1357-1349.78C16300 645.562 15793.8 0 14943 0c-854.7 0-1360.9 645.562-1360.9 1349.78" transform="matrix(.17592 0 0 -.17592 0 474.92)"/><path style="fill:#fff;fill-opacity:1;fill-rule:nonzero;stroke:none" d="M15804.5 806.405V2209.83h495.5V55.42h-520.1l-775.7 1385.03V55.42h-498.6v2154.41h520.1l778.8-1403.425" transform="matrix(.20965 0 0 -.20965 0 474.92)"/></svg>